<?xml version="1.0" encoding="UTF-8" standalone="no"?>
<!-- Created with Inkscape (http://www.inkscape.org/) -->
<svg
   xmlns:svg="http://www.w3.org/2000/svg"
   xmlns="http://www.w3.org/2000/svg"
   version="1.0"
   width="140"
   height="55"
   id="svg3001">
  <defs
     id="defs3003" />
  <g
     transform="translate(-238.71875,-222.5)"
     id="layer1">
    <path
       d="M 277.71875,222.5 C 276.9525,223.3525 275.10124,225.14251 272.5,225.4375 C 270.09125,225.71125 267.83251,225.60499 264.96875,225.78125 C 262.37375,225.93625 258.78249,226.40124 257.34375,226.71875 C 247.21875,228.3275 238.84376,235.27625 238.84375,246.625 C 238.84375,258.16375 246.10875,265.21875 257.59375,265.21875 C 260.535,265.21875 262.83249,264.82376 265.3125,264.25 C 273.21875,262.45875 273.21874,261.0625 273.21875,261.0625 C 273.21875,261.0625 272.40624,260.70749 272.40625,257.9375 L 272.40625,249.875 C 272.34625,249.24125 272.70875,249.0625 273.34375,249.0625 L 275.875,249.0625 L 275.875,247.15625 L 260.65625,247.15625 L 260.65625,249.0625 L 263.78125,249.0625 C 265.62375,249.0625 265.96876,249.2875 265.96875,256.90625 L 265.96875,261.53125 C 264.06625,262.455 261.91,262.84375 259.71875,262.84375 C 250.87125,262.84375 246.41125,255.5375 245.65625,248.0625 C 245.6525,248.0275 245.63251,247.98 245.625,247.9375 C 245.61875,247.8325 245.60125,247.73249 245.59375,247.625 C 245.4375,244.67 247.69499,242.41125 250.625,242.28125 C 251.3675,242.245 253.53125,242.0175 260.1875,242.625 C 267.63875,243.305 272.45001,238.84125 274.25,234.6875 C 275.9675,230.70375 277.71876,222.5 277.71875,222.5 z M 275.4375,226.5 C 274.20375,230.56 272.87499,231.94749 269.9375,231.84375 C 268.02625,231.77 266.79999,231.30375 264.9375,231.21875 C 266.8325,230.7275 268.36626,230.57876 270.625,229.84375 C 272.55625,229.21375 274.22751,228.21624 275.4375,226.5 z M 261.96875,232.5 C 264.04174,232.57312 266.50751,233.19218 267.53125,233.375 C 270.855,233.97 272.32,233.34001 272.875,233 C 272.02125,235.575 270.845,236.53125 268.65625,236.53125 C 266.535,236.53125 264.65124,236.23375 262.75,235.6875 C 260.77,235.1175 258.14999,234.40625 256.28125,234.40625 C 256.735,234.03625 258.93,232.93249 260.09375,232.65625 C 260.63469,232.52844 261.27775,232.47563 261.96875,232.5 z M 254.65625,236.25 C 255.02396,236.21889 255.42516,236.22078 255.84375,236.25 C 257.09625,236.34125 258.89999,236.775 259.6875,237 C 263.545,238.12 266.0475,238.34375 267.71875,238.34375 C 268.18125,238.34375 268.5775,238.3375 268.90625,238.3125 C 267.5375,239.36625 266.46501,239.59376 264.84375,240.03125 C 263.2275,240.46625 259.67624,240.32 258.125,240.15625 C 256.575,239.995 251.59749,239.71875 250.21875,239.71875 L 249.875,239.6875 C 250.69641,238.05453 252.08228,236.46775 254.65625,236.25 z M 287.21875,238.625 C 283.7575,239.08625 280.24125,239.3075 276.78125,239.59375 L 276.78125,241.34375 L 279.1875,241.34375 C 281.14874,241.34375 281.15625,243.86125 281.15625,249.6875 L 281.15625,261.46875 C 281.15624,262.33874 280.76125,262.40625 280.125,262.40625 L 278.03125,262.40625 L 278.03125,264.125 L 292.0625,264.125 L 292.0625,262.40625 L 289.0625,262.40625 C 287.44499,262.40625 287.21875,261.07125 287.21875,254.375 L 287.21875,245.875 C 288.71875,244.43625 290.37125,243.125 292.5625,243.125 C 295.56376,243.125 294.81375,245.09375 295.96875,245.09375 C 296.54626,245.09374 296.67375,244.66375 296.84375,243.5625 L 297.53125,239.84375 C 296.77751,239.09375 295.75625,238.625 294.71875,238.625 C 291.83499,238.625 290.10125,240.75625 287.21875,243.8125 L 287.21875,238.625 z M 311.125,238.625 C 301.95249,238.625 298.46875,245.0225 298.46875,252.1875 C 298.46875,259.28625 302.4475,264.84375 310.0625,264.84375 C 314.18999,264.84376 318.18125,263.31 321.21875,260.5 L 320.375,259.1875 C 318.25499,260.84625 315.99875,261.8125 313.25,261.8125 C 307.00625,261.81249 305.00375,256.5425 304.71875,251.15625 L 320.90625,251.15625 C 320.90626,251.15625 321.2275,247.9875 320.625,246.0625 C 319.53874,242.5875 316.24625,238.625 311.125,238.625 z M 336.9375,238.625 C 327.76626,238.625 324.3125,245.0225 324.3125,252.1875 C 324.31251,259.28625 328.2575,264.84375 335.875,264.84375 C 339.99875,264.84376 344.025,263.31 347.0625,260.5 L 346.1875,259.1875 C 344.0675,260.84625 341.8425,261.8125 339.09375,261.8125 C 332.85251,261.81249 330.84875,256.5425 330.5625,251.15625 L 346.75,251.15625 C 346.74999,251.15625 347.03875,247.9875 346.4375,246.0625 C 345.35501,242.5875 342.06,238.625 336.9375,238.625 z M 358.46875,238.625 C 355.01126,239.08625 351.48875,239.3075 348.03125,239.59375 L 348.03125,241.34375 L 350.46875,241.34375 C 352.43,241.34375 352.40625,243.86125 352.40625,249.6875 L 352.40625,261.46875 C 352.40626,262.33874 352.00875,262.40625 351.375,262.40625 L 349.3125,262.40625 L 349.3125,264.125 L 362.34375,264.125 L 362.34375,262.40625 L 360.3125,262.40625 C 358.6975,262.40625 358.46875,261.07125 358.46875,254.375 L 358.46875,244.90625 C 360.14751,243.35625 362.1725,242.25 364.1875,242.25 C 368.46126,242.25 368.46875,245.54875 368.46875,249.46875 L 368.46875,261.46875 C 368.46874,262.33874 368.03875,262.40625 367.40625,262.40625 L 365.8125,262.40625 L 365.8125,264.125 L 378.5625,264.125 L 378.5625,262.40625 L 376.375,262.40625 C 374.75875,262.40625 374.53125,261.07125 374.53125,254.375 L 374.53125,246.59375 C 374.53124,241.34625 372.09,238.625 367.53125,238.625 C 364.41251,238.625 361.58625,240.48 358.46875,242.78125 L 358.46875,238.625 z M 310.375,240.53125 C 313.01876,240.53126 315.015,243.85375 315.5,246.375 C 315.72251,247.5125 315.78125,248.63125 315.78125,249.25 L 304.6875,249.25 L 304.65625,249.125 C 304.54125,246.37499 306.71,240.53125 310.375,240.53125 z M 336.1875,240.53125 C 338.83,240.53126 340.86125,243.85375 341.34375,246.375 C 341.56374,247.5125 341.59375,248.63125 341.59375,249.25 L 330.5,249.25 L 330.5,249.125 C 330.38876,246.37499 332.52125,240.53125 336.1875,240.53125 z"
       id="path2654"
       style="fill:#098137;fill-opacity:1;fill-rule:nonzero;stroke:none" />
    <path
       d="M 245.50799,272.65028 L 245.50799,271.99299 L 247.88113,271.98916 L 247.88113,274.06805 C 247.51681,274.35848 247.14103,274.57694 246.75379,274.72343 C 246.36654,274.86992 245.96911,274.94316 245.56149,274.94316 C 245.0112,274.94316 244.51122,274.82533 244.06156,274.58968 C 243.6119,274.35402 243.27243,274.01327 243.04314,273.56743 C 242.81385,273.1216 242.69921,272.62353 242.69921,272.07324 C 242.69921,271.52804 242.81322,271.01915 243.04123,270.54656 C 243.26924,270.07397 243.59725,269.72304 244.02526,269.49374 C 244.45326,269.26446 244.94623,269.14982 245.50417,269.14981 C 245.90924,269.14982 246.27547,269.21542 246.60284,269.34662 C 246.93021,269.47783 247.18689,269.66062 247.37287,269.895 C 247.55884,270.12939 247.70024,270.4351 247.79705,270.81215 L 247.1283,270.99558 C 247.04422,270.71025 246.93977,270.48606 246.81494,270.323 C 246.6901,270.15996 246.51176,270.02939 246.27993,269.9313 C 246.04809,269.83322 245.79078,269.78418 245.50799,269.78418 C 245.16915,269.78418 244.87617,269.83577 244.62905,269.93894 C 244.38193,270.04213 244.18258,270.17779 244.03099,270.34593 C 243.87941,270.51408 243.76158,270.69878 243.67751,270.90004 C 243.53484,271.24653 243.4635,271.62231 243.4635,272.02738 C 243.4635,272.52672 243.54949,272.94453 243.72145,273.28082 C 243.89342,273.61711 244.14372,273.86678 244.47237,274.02983 C 244.80102,274.19288 245.15004,274.27441 245.51946,274.2744 C 245.84046,274.27441 246.15382,274.21263 246.45954,274.08906 C 246.76525,273.9655 246.99709,273.83366 247.15505,273.69354 L 247.15505,272.65028 L 245.50799,272.65028 z M 248.55896,274.84763 L 248.55896,270.78922 L 249.17804,270.78922 L 249.17804,271.40448 C 249.33599,271.1166 249.48184,270.9268 249.6156,270.83508 C 249.74935,270.74337 249.89647,270.69751 250.05698,270.69751 C 250.28881,270.69751 250.52447,270.77139 250.76395,270.91915 L 250.52702,271.55734 C 250.35887,271.45798 250.19073,271.4083 250.02258,271.4083 C 249.87227,271.4083 249.73725,271.45352 249.61751,271.54396 C 249.49777,271.63441 249.41242,271.75988 249.36147,271.92038 C 249.28504,272.16495 249.24682,272.43246 249.24683,272.72289 L 249.24683,274.84763 L 248.55896,274.84763 z M 254.2171,273.54068 L 254.92789,273.62858 C 254.81579,274.04384 254.60816,274.36612 254.30499,274.59541 C 254.00182,274.8247 253.61458,274.93934 253.14326,274.93934 C 252.54966,274.93934 252.07898,274.75655 251.73123,274.39096 C 251.38348,274.02537 251.2096,273.51266 251.2096,272.85282 C 251.2096,272.17005 251.38539,271.64014 251.73696,271.26308 C 252.08854,270.88604 252.54457,270.69751 253.10505,270.69751 C 253.6477,270.69751 254.09099,270.88222 254.43492,271.25162 C 254.77885,271.62103 254.95082,272.14075 254.95082,272.81078 C 254.95082,272.85155 254.94954,272.91269 254.947,272.99421 L 251.92039,272.99421 C 251.94587,273.44005 252.07198,273.78144 252.29872,274.01837 C 252.52546,274.2553 252.80825,274.37376 253.14709,274.37376 C 253.3993,274.37376 253.61458,274.30752 253.79291,274.17505 C 253.97125,274.04257 254.11264,273.83112 254.2171,273.54068 L 254.2171,273.54068 z M 251.95861,272.42863 L 254.22474,272.42863 C 254.19417,272.08725 254.10755,271.83121 253.96488,271.66052 C 253.74578,271.39557 253.46172,271.26309 253.11269,271.26308 C 252.79678,271.26309 252.53119,271.36882 252.31592,271.58027 C 252.10064,271.79172 251.98154,272.07451 251.95861,272.42863 L 251.95861,272.42863 z M 258.68597,273.54068 L 259.39676,273.62858 C 259.28466,274.04384 259.07703,274.36612 258.77386,274.59541 C 258.47069,274.8247 258.08345,274.93934 257.61214,274.93934 C 257.01853,274.93934 256.54786,274.75655 256.2001,274.39096 C 255.85235,274.02537 255.67847,273.51266 255.67847,272.85282 C 255.67847,272.17005 255.85426,271.64014 256.20583,271.26308 C 256.55741,270.88604 257.01344,270.69751 257.57392,270.69751 C 258.11657,270.69751 258.55986,270.88222 258.90379,271.25162 C 259.24772,271.62103 259.41969,272.14075 259.41969,272.81078 C 259.41969,272.85155 259.41841,272.91269 259.41587,272.99421 L 256.38927,272.99421 C 256.41474,273.44005 256.54085,273.78144 256.76759,274.01837 C 256.99433,274.2553 257.27712,274.37376 257.61596,274.37376 C 257.86817,274.37376 258.08345,274.30752 258.26179,274.17505 C 258.44012,274.04257 258.58151,273.83112 258.68597,273.54068 L 258.68597,273.54068 z M 256.42748,272.42863 L 258.69361,272.42863 C 258.66304,272.08725 258.57642,271.83121 258.43375,271.66052 C 258.21465,271.39557 257.93059,271.26309 257.58156,271.26308 C 257.26565,271.26309 257.00006,271.36882 256.78479,271.58027 C 256.56951,271.79172 256.45041,272.07451 256.42748,272.42863 L 256.42748,272.42863 z M 260.37662,274.84763 L 260.37662,270.78922 L 260.9957,270.78922 L 260.9957,271.36626 C 261.29377,270.92043 261.72432,270.69751 262.28735,270.69751 C 262.53192,270.69751 262.75675,270.74146 262.96184,270.82935 C 263.16692,270.91725 263.32042,271.03253 263.42233,271.17519 C 263.52423,271.31786 263.59557,271.48728 263.63633,271.68345 C 263.6618,271.81083 263.67454,272.03375 263.67455,272.3522 L 263.67455,274.84763 L 262.98668,274.84763 L 262.98668,272.37895 C 262.98668,272.09872 262.95993,271.88917 262.90643,271.75032 C 262.85293,271.61148 262.75803,271.50066 262.62173,271.41785 C 262.48543,271.33506 262.32556,271.29366 262.14214,271.29366 C 261.84916,271.29366 261.5963,271.38665 261.38357,271.57262 C 261.17084,271.75861 261.06448,272.11145 261.06448,272.63117 L 261.06448,274.84763 L 260.37662,274.84763 z M 266.74912,274.84763 L 266.74912,269.24535 L 268.86239,269.24535 C 269.23434,269.24535 269.51841,269.26319 269.71458,269.29885 C 269.98972,269.34471 270.22028,269.43197 270.40627,269.56062 C 270.59224,269.68928 270.74191,269.86953 270.85529,270.10136 C 270.96865,270.3332 271.02534,270.58796 271.02534,270.86565 C 271.02534,271.34207 270.87375,271.74523 270.57059,272.07515 C 270.26742,272.40507 269.71967,272.57003 268.92736,272.57003 L 267.49048,272.57003 L 267.49048,274.84763 L 266.74912,274.84763 z M 267.49048,271.90891 L 268.93882,271.90891 C 269.41778,271.90892 269.75789,271.81975 269.95915,271.64141 C 270.16041,271.46308 270.26105,271.21214 270.26105,270.88858 C 270.26105,270.6542 270.20181,270.45357 270.08335,270.2867 C 269.96488,270.11983 269.80884,270.00965 269.61522,269.95614 C 269.49038,269.92303 269.25982,269.90647 268.92353,269.90646 L 267.49048,269.90646 L 267.49048,271.90891 z M 274.64709,274.34701 C 274.39232,274.56356 274.14711,274.71642 273.91146,274.80559 C 273.6758,274.89476 273.42294,274.93934 273.15289,274.93934 C 272.70705,274.93934 272.3644,274.83043 272.12492,274.61261 C 271.88544,274.39478 271.7657,274.11645 271.7657,273.77761 C 271.7657,273.5789 271.81092,273.39738 271.90136,273.23305 C 271.9918,273.06873 272.11027,272.93689 272.25676,272.83753 C 272.40325,272.73818 272.56821,272.66302 272.75164,272.61206 C 272.88666,272.5764 273.09047,272.54201 273.36307,272.50888 C 273.91846,272.44265 274.32736,272.36367 274.58977,272.27195 C 274.59231,272.17769 274.59359,272.11782 274.59359,272.09234 C 274.59359,271.81211 274.52862,271.61466 274.39869,271.50002 C 274.2229,271.34461 273.96177,271.26691 273.61529,271.26691 C 273.29174,271.26691 273.0529,271.3236 272.89877,271.43696 C 272.74463,271.55034 272.63062,271.75096 272.55674,272.03884 L 271.88416,271.94713 C 271.94531,271.65925 272.04594,271.42677 272.18606,271.24971 C 272.32618,271.07265 272.52872,270.93635 272.79368,270.84081 C 273.05863,270.74528 273.36562,270.69751 273.71465,270.69751 C 274.06113,270.69751 274.34264,270.73827 274.5592,270.81979 C 274.77574,270.90132 274.93497,271.00387 275.03688,271.12742 C 275.13878,271.25099 275.21012,271.40703 275.25088,271.59555 C 275.27381,271.71275 275.28527,271.9242 275.28527,272.22992 L 275.28527,273.14707 C 275.28527,273.78653 275.29992,274.19097 275.32922,274.36039 C 275.35852,274.52981 275.41647,274.69222 275.5031,274.84763 L 274.78466,274.84763 C 274.71332,274.70496 274.66747,274.53809 274.64709,274.34701 L 274.64709,274.34701 z M 274.58977,272.81078 C 274.34009,272.91269 273.96559,272.99931 273.46625,273.07064 C 273.18346,273.11141 272.98347,273.15726 272.86628,273.20821 C 272.74909,273.25917 272.65865,273.33369 272.59496,273.43177 C 272.53127,273.52986 272.49942,273.63877 272.49942,273.75851 C 272.49942,273.94194 272.56884,274.0948 272.70769,274.21708 C 272.84654,274.33937 273.04971,274.40051 273.31722,274.40051 C 273.58217,274.40051 273.81783,274.34255 274.02419,274.22664 C 274.23055,274.11072 274.38213,273.95213 274.47894,273.75086 C 274.55282,273.59546 274.58976,273.36617 274.58977,273.063 L 274.58977,272.81078 z M 276.46001,274.84763 L 276.46001,270.78922 L 277.07909,270.78922 L 277.07909,271.40448 C 277.23704,271.1166 277.38289,270.9268 277.51664,270.83508 C 277.65039,270.74337 277.79752,270.69751 277.95802,270.69751 C 278.18986,270.69751 278.42552,270.77139 278.665,270.91915 L 278.42807,271.55734 C 278.25992,271.45798 278.09177,271.4083 277.92363,271.4083 C 277.77332,271.4083 277.63829,271.45352 277.51856,271.54396 C 277.39881,271.63441 277.31347,271.75988 277.26252,271.92038 C 277.18609,272.16495 277.14787,272.43246 277.14787,272.72289 L 277.14787,274.84763 L 276.46001,274.84763 z M 280.84177,274.23237 L 280.94113,274.83998 C 280.74751,274.88075 280.57427,274.90113 280.42141,274.90113 C 280.17174,274.90113 279.97812,274.86164 279.84055,274.78266 C 279.70297,274.70368 279.60616,274.59987 279.55012,274.47121 C 279.49407,274.34255 279.46604,274.07187 279.46604,273.65915 L 279.46604,271.32423 L 278.96161,271.32423 L 278.96161,270.78922 L 279.46604,270.78922 L 279.46604,269.78418 L 280.15009,269.37146 L 280.15009,270.78922 L 280.84177,270.78922 L 280.84177,271.32423 L 280.15009,271.32423 L 280.15009,273.69736 C 280.15009,273.89353 280.16219,274.01964 280.18639,274.07569 C 280.21059,274.13174 280.25008,274.17632 280.30486,274.20944 C 280.35963,274.24256 280.43797,274.25912 280.53988,274.25912 C 280.6163,274.25912 280.71694,274.2502 280.84177,274.23237 L 280.84177,274.23237 z M 281.89207,276.41061 L 281.81564,275.76478 C 281.96595,275.80554 282.09715,275.82592 282.20925,275.82592 C 282.36211,275.82592 282.48439,275.80045 282.57611,275.74949 C 282.66782,275.69854 282.74298,275.62721 282.80158,275.53549 C 282.84488,275.4667 282.91494,275.29601 283.01176,275.02341 C 283.02449,274.9852 283.04487,274.92915 283.0729,274.85527 L 281.53285,270.78922 L 282.27421,270.78922 L 283.11876,273.13943 C 283.2283,273.4375 283.32639,273.75086 283.41301,274.07951 C 283.49199,273.7636 283.58625,273.45534 283.6958,273.15471 L 284.56327,270.78922 L 285.25114,270.78922 L 283.70726,274.91641 C 283.54167,275.36225 283.41301,275.66924 283.3213,275.83739 C 283.19901,276.06413 283.05889,276.23036 282.90093,276.33609 C 282.74298,276.44181 282.55445,276.49468 282.33536,276.49468 C 282.20288,276.49468 282.05511,276.46665 281.89207,276.41061 L 281.89207,276.41061 z M 287.09027,272.81842 C 287.09027,272.06687 287.29918,271.51021 287.717,271.14844 C 288.06602,270.84782 288.49148,270.69751 288.99337,270.69751 C 289.5513,270.69751 290.00733,270.8803 290.36145,271.24589 C 290.71557,271.61148 290.89263,272.11655 290.89264,272.7611 C 290.89263,273.28337 290.81429,273.69418 290.65762,273.99353 C 290.50093,274.29288 290.27292,274.52535 289.97357,274.69095 C 289.67422,274.85654 289.34749,274.93934 288.99337,274.93934 C 288.42524,274.93934 287.96603,274.75718 287.61573,274.39287 C 287.26542,274.02856 287.09027,273.50374 287.09027,272.81842 L 287.09027,272.81842 z M 287.79725,272.81842 C 287.79725,273.33815 287.91062,273.7273 288.13736,273.98588 C 288.3641,274.24447 288.64943,274.37376 288.99337,274.37376 C 289.33475,274.37376 289.61881,274.24383 289.84556,273.98397 C 290.07229,273.72411 290.18566,273.32796 290.18567,272.7955 C 290.18566,272.29361 290.07166,271.91337 289.84364,271.65479 C 289.61563,271.3962 289.3322,271.26691 288.99337,271.26691 C 288.64943,271.26691 288.3641,271.39557 288.13736,271.65287 C 287.91062,271.91019 287.79725,272.29871 287.79725,272.81842 L 287.79725,272.81842 z M 292.26909,274.84763 L 292.26909,271.32423 L 291.66148,271.32423 L 291.66148,270.78922 L 292.26909,270.78922 L 292.26909,270.3574 C 292.26909,270.0848 292.29329,269.88226 292.3417,269.74978 C 292.40794,269.57145 292.52449,269.42687 292.69136,269.31604 C 292.85823,269.20523 293.09198,269.14982 293.3926,269.14981 C 293.58622,269.14982 293.80022,269.17275 294.03461,269.2186 L 293.93143,269.81857 C 293.78876,269.7931 293.65373,269.78036 293.52635,269.78035 C 293.31744,269.78036 293.16968,269.82494 293.08306,269.91411 C 292.99644,270.00328 292.95313,270.17015 292.95313,270.41472 L 292.95313,270.78922 L 293.74418,270.78922 L 293.74418,271.32423 L 292.95313,271.32423 L 292.95313,274.84763 L 292.26909,274.84763 z M 295.84278,274.84763 L 297.99427,269.24535 L 298.79296,269.24535 L 301.08584,274.84763 L 300.2413,274.84763 L 299.58783,273.15089 L 297.24526,273.15089 L 296.63001,274.84763 L 295.84278,274.84763 z M 297.45927,272.5471 L 299.35854,272.5471 L 298.77385,270.99558 C 298.59551,270.52427 298.46304,270.13703 298.37642,269.83385 C 298.30508,270.19308 298.20445,270.54975 298.07452,270.90387 L 297.45927,272.5471 z M 301.59256,272.81842 C 301.59256,272.06687 301.80147,271.51021 302.21928,271.14844 C 302.56831,270.84782 302.99377,270.69751 303.49566,270.69751 C 304.05359,270.69751 304.50962,270.8803 304.86374,271.24589 C 305.21786,271.61148 305.39492,272.11655 305.39493,272.7611 C 305.39492,273.28337 305.31658,273.69418 305.15991,273.99353 C 305.00322,274.29288 304.77521,274.52535 304.47586,274.69095 C 304.17651,274.85654 303.84978,274.93934 303.49566,274.93934 C 302.92753,274.93934 302.46832,274.75718 302.11802,274.39287 C 301.76771,274.02856 301.59256,273.50374 301.59256,272.81842 L 301.59256,272.81842 z M 302.29954,272.81842 C 302.29953,273.33815 302.4129,273.7273 302.63965,273.98588 C 302.86639,274.24447 303.15172,274.37376 303.49566,274.37376 C 303.83704,274.37376 304.1211,274.24383 304.34784,273.98397 C 304.57458,273.72411 304.68795,273.32796 304.68796,272.7955 C 304.68795,272.29361 304.57394,271.91337 304.34593,271.65479 C 304.11792,271.3962 303.83449,271.26691 303.49566,271.26691 C 303.15172,271.26691 302.86639,271.39557 302.63965,271.65287 C 302.4129,271.91019 302.29953,272.29871 302.29954,272.81842 L 302.29954,272.81842 z M 308.10886,274.23237 L 308.20822,274.83998 C 308.0146,274.88075 307.84136,274.90113 307.6885,274.90113 C 307.43883,274.90113 307.24521,274.86164 307.10764,274.78266 C 306.97006,274.70368 306.87325,274.59987 306.81721,274.47121 C 306.76116,274.34255 306.73313,274.07187 306.73313,273.65915 L 306.73313,271.32423 L 306.2287,271.32423 L 306.2287,270.78922 L 306.73313,270.78922 L 306.73313,269.78418 L 307.41718,269.37146 L 307.41718,270.78922 L 308.10886,270.78922 L 308.10886,271.32423 L 307.41718,271.32423 L 307.41718,273.69736 C 307.41718,273.89353 307.42928,274.01964 307.45348,274.07569 C 307.47768,274.13174 307.51717,274.17632 307.57195,274.20944 C 307.62672,274.24256 307.70506,274.25912 307.80697,274.25912 C 307.88339,274.25912 307.98403,274.2502 308.10886,274.23237 L 308.10886,274.23237 z M 311.96794,273.54068 L 312.67873,273.62858 C 312.56663,274.04384 312.359,274.36612 312.05583,274.59541 C 311.75266,274.8247 311.36542,274.93934 310.8941,274.93934 C 310.3005,274.93934 309.82982,274.75655 309.48207,274.39096 C 309.13432,274.02537 308.96044,273.51266 308.96044,272.85282 C 308.96044,272.17005 309.13623,271.64014 309.4878,271.26308 C 309.83938,270.88604 310.2954,270.69751 310.85589,270.69751 C 311.39854,270.69751 311.84183,270.88222 312.18576,271.25162 C 312.52969,271.62103 312.70166,272.14075 312.70166,272.81078 C 312.70166,272.85155 312.70038,272.91269 312.69784,272.99421 L 309.67123,272.99421 C 309.69671,273.44005 309.82282,273.78144 310.04956,274.01837 C 310.2763,274.2553 310.55909,274.37376 310.89792,274.37376 C 311.15014,274.37376 311.36542,274.30752 311.54375,274.17505 C 311.72209,274.04257 311.86348,273.83112 311.96794,273.54068 L 311.96794,273.54068 z M 309.70945,272.42863 L 311.97558,272.42863 C 311.94501,272.08725 311.85839,271.83121 311.71572,271.66052 C 311.49662,271.39557 311.21256,271.26309 310.86353,271.26308 C 310.54762,271.26309 310.28203,271.36882 310.06675,271.58027 C 309.85148,271.79172 309.73237,272.07451 309.70945,272.42863 L 309.70945,272.42863 z M 316.30688,274.34701 C 316.05211,274.56356 315.8069,274.71642 315.57125,274.80559 C 315.33559,274.89476 315.08273,274.93934 314.81268,274.93934 C 314.36684,274.93934 314.02419,274.83043 313.78471,274.61261 C 313.54523,274.39478 313.42549,274.11645 313.42549,273.77761 C 313.42549,273.5789 313.47071,273.39738 313.56115,273.23305 C 313.65159,273.06873 313.77006,272.93689 313.91655,272.83753 C 314.06304,272.73818 314.228,272.66302 314.41143,272.61206 C 314.54645,272.5764 314.75026,272.54201 315.02286,272.50888 C 315.57825,272.44265 315.98715,272.36367 316.24956,272.27195 C 316.2521,272.17769 316.25338,272.11782 316.25338,272.09234 C 316.25338,271.81211 316.18841,271.61466 316.05848,271.50002 C 315.88269,271.34461 315.62156,271.26691 315.27508,271.26691 C 314.95153,271.26691 314.71269,271.3236 314.55856,271.43696 C 314.40442,271.55034 314.29041,271.75096 314.21653,272.03884 L 313.54395,271.94713 C 313.6051,271.65925 313.70573,271.42677 313.84585,271.24971 C 313.98597,271.07265 314.18851,270.93635 314.45347,270.84081 C 314.71842,270.74528 315.02541,270.69751 315.37444,270.69751 C 315.72092,270.69751 316.00243,270.73827 316.21899,270.81979 C 316.43553,270.90132 316.59476,271.00387 316.69667,271.12742 C 316.79857,271.25099 316.86991,271.40703 316.91067,271.59555 C 316.9336,271.71275 316.94506,271.9242 316.94507,272.22992 L 316.94507,273.14707 C 316.94506,273.78653 316.95971,274.19097 316.98901,274.36039 C 317.01831,274.52981 317.07626,274.69222 317.16289,274.84763 L 316.44445,274.84763 C 316.37311,274.70496 316.32726,274.53809 316.30688,274.34701 L 316.30688,274.34701 z M 316.24956,272.81078 C 315.99988,272.91269 315.62538,272.99931 315.12604,273.07064 C 314.84325,273.11141 314.64326,273.15726 314.52607,273.20821 C 314.40888,273.25917 314.31844,273.33369 314.25475,273.43177 C 314.19106,273.52986 314.15921,273.63877 314.15921,273.75851 C 314.15921,273.94194 314.22863,274.0948 314.36748,274.21708 C 314.50633,274.33937 314.7095,274.40051 314.97701,274.40051 C 315.24196,274.40051 315.47762,274.34255 315.68398,274.22664 C 315.89034,274.11072 316.04192,273.95213 316.13873,273.75086 C 316.21261,273.59546 316.24955,273.36617 316.24956,273.063 L 316.24956,272.81078 z M 318.1198,274.84763 L 318.1198,270.78922 L 318.73888,270.78922 L 318.73888,271.40448 C 318.89683,271.1166 319.04268,270.9268 319.17643,270.83508 C 319.31018,270.74337 319.45731,270.69751 319.61781,270.69751 C 319.84965,270.69751 320.08531,270.77139 320.32479,270.91915 L 320.08786,271.55734 C 319.91971,271.45798 319.75156,271.4083 319.58342,271.4083 C 319.43311,271.4083 319.29808,271.45352 319.17835,271.54396 C 319.0586,271.63441 318.97326,271.75988 318.92231,271.92038 C 318.84588,272.16495 318.80766,272.43246 318.80766,272.72289 L 318.80766,274.84763 L 318.1198,274.84763 z M 320.74369,272.81842 C 320.74369,272.06687 320.95259,271.51021 321.37041,271.14844 C 321.71943,270.84782 322.14489,270.69751 322.64678,270.69751 C 323.20471,270.69751 323.66074,270.8803 324.01487,271.24589 C 324.36899,271.61148 324.54605,272.11655 324.54605,272.7611 C 324.54605,273.28337 324.46771,273.69418 324.31103,273.99353 C 324.15435,274.29288 323.92633,274.52535 323.62699,274.69095 C 323.32764,274.85654 323.0009,274.93934 322.64678,274.93934 C 322.07865,274.93934 321.61944,274.75718 321.26914,274.39287 C 320.91884,274.02856 320.74369,273.50374 320.74369,272.81842 L 320.74369,272.81842 z M 321.45066,272.81842 C 321.45066,273.33815 321.56403,273.7273 321.79077,273.98588 C 322.01751,274.24447 322.30284,274.37376 322.64678,274.37376 C 322.98816,274.37376 323.27222,274.24383 323.49897,273.98397 C 323.7257,273.72411 323.83907,273.32796 323.83908,272.7955 C 323.83907,272.29361 323.72507,271.91337 323.49706,271.65479 C 323.26904,271.3962 322.98561,271.26691 322.64678,271.26691 C 322.30284,271.26691 322.01751,271.39557 321.79077,271.65287 C 321.56403,271.91019 321.45066,272.29871 321.45066,272.81842 L 321.45066,272.81842 z M 328.40646,274.34701 C 328.15169,274.56356 327.90648,274.71642 327.67082,274.80559 C 327.43516,274.89476 327.18231,274.93934 326.91226,274.93934 C 326.46642,274.93934 326.12376,274.83043 325.88429,274.61261 C 325.64481,274.39478 325.52507,274.11645 325.52507,273.77761 C 325.52507,273.5789 325.57029,273.39738 325.66073,273.23305 C 325.75117,273.06873 325.86964,272.93689 326.01613,272.83753 C 326.16262,272.73818 326.32758,272.66302 326.51101,272.61206 C 326.64603,272.5764 326.84984,272.54201 327.12244,272.50888 C 327.67783,272.44265 328.08673,272.36367 328.34914,272.27195 C 328.35168,272.17769 328.35295,272.11782 328.35296,272.09234 C 328.35295,271.81211 328.28799,271.61466 328.15806,271.50002 C 327.98227,271.34461 327.72114,271.26691 327.37466,271.26691 C 327.05111,271.26691 326.81227,271.3236 326.65813,271.43696 C 326.504,271.55034 326.38999,271.75096 326.31611,272.03884 L 325.64353,271.94713 C 325.70468,271.65925 325.80531,271.42677 325.94543,271.24971 C 326.08555,271.07265 326.28809,270.93635 326.55304,270.84081 C 326.818,270.74528 327.12499,270.69751 327.47402,270.69751 C 327.8205,270.69751 328.10201,270.73827 328.31856,270.81979 C 328.53511,270.90132 328.69434,271.00387 328.79625,271.12742 C 328.89815,271.25099 328.96948,271.40703 329.01025,271.59555 C 329.03318,271.71275 329.04464,271.9242 329.04464,272.22992 L 329.04464,273.14707 C 329.04464,273.78653 329.05929,274.19097 329.08859,274.36039 C 329.11788,274.52981 329.17584,274.69222 329.26247,274.84763 L 328.54403,274.84763 C 328.47269,274.70496 328.42684,274.53809 328.40646,274.34701 L 328.40646,274.34701 z M 328.34914,272.81078 C 328.09946,272.91269 327.72496,272.99931 327.22562,273.07064 C 326.94283,273.11141 326.74284,273.15726 326.62565,273.20821 C 326.50846,273.25917 326.41802,273.33369 326.35433,273.43177 C 326.29064,273.52986 326.25879,273.63877 326.25879,273.75851 C 326.25879,273.94194 326.32821,274.0948 326.46706,274.21708 C 326.60591,274.33937 326.80908,274.40051 327.07659,274.40051 C 327.34154,274.40051 327.5772,274.34255 327.78356,274.22664 C 327.98991,274.11072 328.1415,273.95213 328.23831,273.75086 C 328.31219,273.59546 328.34913,273.36617 328.34914,273.063 L 328.34914,272.81078 z M 331.99776,274.84763 L 331.99776,269.24535 L 332.75823,269.24535 L 335.70077,273.64386 L 335.70077,269.24535 L 336.41156,269.24535 L 336.41156,274.84763 L 335.65109,274.84763 L 332.70855,270.44529 L 332.70855,274.84763 L 331.99776,274.84763 z M 340.31507,273.54068 L 341.02587,273.62858 C 340.91377,274.04384 340.70613,274.36612 340.40297,274.59541 C 340.0998,274.8247 339.71255,274.93934 339.24124,274.93934 C 338.64764,274.93934 338.17696,274.75655 337.82921,274.39096 C 337.48145,274.02537 337.30758,273.51266 337.30758,272.85282 C 337.30758,272.17005 337.48336,271.64014 337.83494,271.26308 C 338.18651,270.88604 338.64254,270.69751 339.20303,270.69751 C 339.74567,270.69751 340.18896,270.88222 340.5329,271.25162 C 340.87683,271.62103 341.04879,272.14075 341.0488,272.81078 C 341.04879,272.85155 341.04752,272.91269 341.04498,272.99421 L 338.01837,272.99421 C 338.04385,273.44005 338.16995,273.78144 338.3967,274.01837 C 338.62343,274.2553 338.90622,274.37376 339.24506,274.37376 C 339.49728,274.37376 339.71255,274.30752 339.89089,274.17505 C 340.06922,274.04257 340.21062,273.83112 340.31507,273.54068 L 340.31507,273.54068 z M 338.05658,272.42863 L 340.32272,272.42863 C 340.29214,272.08725 340.20552,271.83121 340.06286,271.66052 C 339.84376,271.39557 339.55969,271.26309 339.21067,271.26308 C 338.89476,271.26309 338.62917,271.36882 338.41389,271.58027 C 338.19861,271.79172 338.07951,272.07451 338.05658,272.42863 L 338.05658,272.42863 z M 342.75474,274.84763 L 341.51277,270.78922 L 342.22356,270.78922 L 342.86939,273.13178 L 343.11014,274.00308 C 343.12033,273.95977 343.19039,273.6808 343.32032,273.16618 L 343.96615,270.78922 L 344.67312,270.78922 L 345.28074,273.14325 L 345.48328,273.91901 L 345.71639,273.13561 L 346.41189,270.78922 L 347.08065,270.78922 L 345.81192,274.84763 L 345.09731,274.84763 L 344.45148,272.41717 L 344.2948,271.72548 L 343.47318,274.84763 L 342.75474,274.84763 z M 349.39463,274.84763 L 349.39463,274.15976 L 352.26455,270.5714 C 352.46836,270.31664 352.66198,270.09499 352.84542,269.90646 L 349.71945,269.90646 L 349.71945,269.24535 L 353.732,269.24535 L 353.732,269.90646 L 350.58693,273.7929 L 350.24681,274.18651 L 353.82371,274.18651 L 353.82371,274.84763 L 349.39463,274.84763 z M 357.71312,273.54068 L 358.42391,273.62858 C 358.31181,274.04384 358.10418,274.36612 357.80101,274.59541 C 357.49784,274.8247 357.11059,274.93934 356.63928,274.93934 C 356.04568,274.93934 355.575,274.75655 355.22725,274.39096 C 354.87949,274.02537 354.70562,273.51266 354.70562,272.85282 C 354.70562,272.17005 354.8814,271.64014 355.23298,271.26308 C 355.58455,270.88604 356.04058,270.69751 356.60107,270.69751 C 357.14371,270.69751 357.587,270.88222 357.93094,271.25162 C 358.27487,271.62103 358.44683,272.14075 358.44684,272.81078 C 358.44683,272.85155 358.44556,272.91269 358.44302,272.99421 L 355.41641,272.99421 C 355.44189,273.44005 355.56799,273.78144 355.79474,274.01837 C 356.02148,274.2553 356.30426,274.37376 356.6431,274.37376 C 356.89532,274.37376 357.11059,274.30752 357.28893,274.17505 C 357.46726,274.04257 357.60866,273.83112 357.71312,273.54068 L 357.71312,273.54068 z M 355.45463,272.42863 L 357.72076,272.42863 C 357.69018,272.08725 357.60356,271.83121 357.4609,271.66052 C 357.2418,271.39557 356.95774,271.26309 356.60871,271.26308 C 356.2928,271.26309 356.02721,271.36882 355.81193,271.58027 C 355.59666,271.79172 355.47755,272.07451 355.45463,272.42863 L 355.45463,272.42863 z M 362.05203,274.34701 C 361.79726,274.56356 361.55205,274.71642 361.31639,274.80559 C 361.08073,274.89476 360.82788,274.93934 360.55783,274.93934 C 360.11199,274.93934 359.76933,274.83043 359.52986,274.61261 C 359.29038,274.39478 359.17064,274.11645 359.17064,273.77761 C 359.17064,273.5789 359.21586,273.39738 359.3063,273.23305 C 359.39674,273.06873 359.51521,272.93689 359.6617,272.83753 C 359.80818,272.73818 359.97314,272.66302 360.15658,272.61206 C 360.2916,272.5764 360.49541,272.54201 360.76801,272.50888 C 361.3234,272.44265 361.73229,272.36367 361.9947,272.27195 C 361.99725,272.17769 361.99852,272.11782 361.99853,272.09234 C 361.99852,271.81211 361.93356,271.61466 361.80363,271.50002 C 361.62784,271.34461 361.36671,271.26691 361.02023,271.26691 C 360.69668,271.26691 360.45783,271.3236 360.3037,271.43696 C 360.14957,271.55034 360.03556,271.75096 359.96168,272.03884 L 359.2891,271.94713 C 359.35025,271.65925 359.45088,271.42677 359.591,271.24971 C 359.73112,271.07265 359.93366,270.93635 360.19861,270.84081 C 360.46357,270.74528 360.77056,270.69751 361.11959,270.69751 C 361.46607,270.69751 361.74758,270.73827 361.96413,270.81979 C 362.18068,270.90132 362.33991,271.00387 362.44182,271.12742 C 362.54372,271.25099 362.61505,271.40703 362.65582,271.59555 C 362.67874,271.71275 362.69021,271.9242 362.69021,272.22992 L 362.69021,273.14707 C 362.69021,273.78653 362.70486,274.19097 362.73416,274.36039 C 362.76345,274.52981 362.82141,274.69222 362.90804,274.84763 L 362.1896,274.84763 C 362.11826,274.70496 362.0724,274.53809 362.05203,274.34701 L 362.05203,274.34701 z M 361.9947,272.81078 C 361.74503,272.91269 361.37053,272.99931 360.87119,273.07064 C 360.5884,273.11141 360.38841,273.15726 360.27122,273.20821 C 360.15403,273.25917 360.06359,273.33369 359.9999,273.43177 C 359.9362,273.52986 359.90436,273.63877 359.90436,273.75851 C 359.90436,273.94194 359.97378,274.0948 360.11263,274.21708 C 360.25148,274.33937 360.45465,274.40051 360.72215,274.40051 C 360.98711,274.40051 361.22277,274.34255 361.42913,274.22664 C 361.63548,274.11072 361.78707,273.95213 361.88388,273.75086 C 361.95776,273.59546 361.9947,273.36617 361.9947,273.063 L 361.9947,272.81078 z M 363.85733,274.84763 L 363.85733,269.24535 L 364.5452,269.24535 L 364.5452,274.84763 L 363.85733,274.84763 z M 368.66534,274.34701 C 368.41057,274.56356 368.16536,274.71642 367.92971,274.80559 C 367.69405,274.89476 367.44119,274.93934 367.17114,274.93934 C 366.7253,274.93934 366.38265,274.83043 366.14317,274.61261 C 365.90369,274.39478 365.78395,274.11645 365.78395,273.77761 C 365.78395,273.5789 365.82917,273.39738 365.91961,273.23305 C 366.01005,273.06873 366.12852,272.93689 366.27501,272.83753 C 366.4215,272.73818 366.58646,272.66302 366.76989,272.61206 C 366.90491,272.5764 367.10872,272.54201 367.38132,272.50888 C 367.93671,272.44265 368.34561,272.36367 368.60802,272.27195 C 368.61056,272.17769 368.61183,272.11782 368.61184,272.09234 C 368.61183,271.81211 368.54687,271.61466 368.41694,271.50002 C 368.24115,271.34461 367.98002,271.26691 367.63354,271.26691 C 367.30999,271.26691 367.07115,271.3236 366.91702,271.43696 C 366.76288,271.55034 366.64887,271.75096 366.57499,272.03884 L 365.90241,271.94713 C 365.96356,271.65925 366.06419,271.42677 366.20431,271.24971 C 366.34443,271.07265 366.54697,270.93635 366.81192,270.84081 C 367.07688,270.74528 367.38387,270.69751 367.7329,270.69751 C 368.07938,270.69751 368.36089,270.73827 368.57744,270.81979 C 368.79399,270.90132 368.95322,271.00387 369.05513,271.12742 C 369.15703,271.25099 369.22837,271.40703 369.26913,271.59555 C 369.29206,271.71275 369.30352,271.9242 369.30352,272.22992 L 369.30352,273.14707 C 369.30352,273.78653 369.31817,274.19097 369.34747,274.36039 C 369.37677,274.52981 369.43472,274.69222 369.52135,274.84763 L 368.80291,274.84763 C 368.73157,274.70496 368.68572,274.53809 368.66534,274.34701 L 368.66534,274.34701 z M 368.60802,272.81078 C 368.35834,272.91269 367.98384,272.99931 367.4845,273.07064 C 367.20171,273.11141 367.00172,273.15726 366.88453,273.20821 C 366.76734,273.25917 366.6769,273.33369 366.61321,273.43177 C 366.54952,273.52986 366.51767,273.63877 366.51767,273.75851 C 366.51767,273.94194 366.58709,274.0948 366.72594,274.21708 C 366.86479,274.33937 367.06796,274.40051 367.33547,274.40051 C 367.60042,274.40051 367.83608,274.34255 368.04244,274.22664 C 368.2488,274.11072 368.40038,273.95213 368.49719,273.75086 C 368.57107,273.59546 368.60801,273.36617 368.60802,273.063 L 368.60802,272.81078 z M 370.4859,274.84763 L 370.4859,270.78922 L 371.10498,270.78922 L 371.10498,271.36626 C 371.40305,270.92043 371.8336,270.69751 372.39664,270.69751 C 372.64121,270.69751 372.86604,270.74146 373.07113,270.82935 C 373.27621,270.91725 373.4297,271.03253 373.53161,271.17519 C 373.63352,271.31786 373.70485,271.48728 373.74562,271.68345 C 373.77109,271.81083 373.78383,272.03375 373.78383,272.3522 L 373.78383,274.84763 L 373.09597,274.84763 L 373.09597,272.37895 C 373.09596,272.09872 373.06921,271.88917 373.01571,271.75032 C 372.96221,271.61148 372.86731,271.50066 372.73101,271.41785 C 372.59471,271.33506 372.43485,271.29366 372.25142,271.29366 C 371.95844,271.29366 371.70558,271.38665 371.49286,271.57262 C 371.28013,271.75861 371.17376,272.11145 371.17376,272.63117 L 371.17376,274.84763 L 370.4859,274.84763 z M 377.53296,274.84763 L 377.53296,274.33555 C 377.27564,274.73808 376.89732,274.93934 376.39798,274.93934 C 376.07443,274.93934 375.77699,274.85017 375.50567,274.67184 C 375.23434,274.4935 375.02416,274.24447 374.87512,273.92474 C 374.72609,273.60501 374.65157,273.23751 374.65157,272.82225 C 374.65157,272.41717 374.71908,272.04967 374.8541,271.71975 C 374.98913,271.38983 375.19167,271.13698 375.46172,270.96119 C 375.73177,270.7854 376.03366,270.69751 376.36741,270.69751 C 376.61198,270.69751 376.8298,270.7491 377.02088,270.85228 C 377.21195,270.95546 377.36736,271.08985 377.4871,271.25544 L 377.4871,269.24535 L 378.17114,269.24535 L 378.17114,274.84763 L 377.53296,274.84763 z M 375.35854,272.82225 C 375.35854,273.34197 375.46809,273.73048 375.68719,273.98779 C 375.90628,274.24511 376.16487,274.37376 376.46294,274.37376 C 376.76356,274.37376 377.01897,274.25084 377.22915,274.00499 C 377.43933,273.75914 377.54442,273.384 377.54442,272.87957 C 377.54442,272.32418 377.43742,271.91656 377.22342,271.6567 C 377.00941,271.39684 376.74573,271.26691 376.43237,271.26691 C 376.12665,271.26691 375.87125,271.39174 375.66617,271.64141 C 375.46108,271.89108 375.35854,272.28469 375.35854,272.82225 L 375.35854,272.82225 z"
       id="text2668"
       style="font-size:15px;fill:#098137;fill-opacity:1" />
  </g>
</svg>
