<?xml version="1.0" encoding="UTF-8" standalone="no"?>
<!-- Created with Inkscape (http://www.inkscape.org/) -->

<svg
   xmlns:dc="http://purl.org/dc/elements/1.1/"
   xmlns:cc="http://creativecommons.org/ns#"
   xmlns:rdf="http://www.w3.org/1999/02/22-rdf-syntax-ns#"
   xmlns:svg="http://www.w3.org/2000/svg"
   xmlns="http://www.w3.org/2000/svg"
   xmlns:sodipodi="http://sodipodi.sourceforge.net/DTD/sodipodi-0.dtd"
   xmlns:inkscape="http://www.inkscape.org/namespaces/inkscape"
   id="svg2985"
   version="1.1"
   inkscape:version="0.47 r22583"
   width="586"
   height="292"
   sodipodi:docname="ZZ.svg">
  <metadata
     id="metadata2991">
    <rdf:RDF>
      <cc:Work
         rdf:about="">
        <dc:format>image/svg+xml</dc:format>
        <dc:type
           rdf:resource="http://purl.org/dc/dcmitype/StillImage" />
        <dc:title />
      </cc:Work>
    </rdf:RDF>
  </metadata>
  <defs
     id="defs2989">
    <inkscape:perspective
       sodipodi:type="inkscape:persp3d"
       inkscape:vp_x="0 : 146 : 1"
       inkscape:vp_y="0 : 1000 : 0"
       inkscape:vp_z="586 : 146 : 1"
       inkscape:persp3d-origin="293 : 97.333333 : 1"
       id="perspective37" />
    <inkscape:perspective
       id="perspective2851"
       inkscape:persp3d-origin="0.5 : 0.33333333 : 1"
       inkscape:vp_z="1 : 0.5 : 1"
       inkscape:vp_y="0 : 1000 : 0"
       inkscape:vp_x="0 : 0.5 : 1"
       sodipodi:type="inkscape:persp3d" />
  </defs>
  <sodipodi:namedview
     pagecolor="#ffffff"
     bordercolor="#666666"
     borderopacity="1"
     objecttolerance="10"
     gridtolerance="10"
     guidetolerance="10"
     inkscape:pageopacity="0"
     inkscape:pageshadow="2"
     inkscape:window-width="1280"
     inkscape:window-height="1004"
     id="namedview2987"
     showgrid="false"
     inkscape:zoom="0.71972702"
     inkscape:cx="406.68352"
     inkscape:cy="-37.088527"
     inkscape:window-x="-8"
     inkscape:window-y="-8"
     inkscape:window-maximized="1"
     inkscape:current-layer="svg2985" />
  <path
     style="fill:#d82a20;fill-opacity:1;stroke:none"
     d="m 39.928431,138.31863 0,121.22157 62.621569,0.28725 0.57451,-19.82059 -41.651961,-0.28725 0,-101.68824 z"
     id="path2995"
     inkscape:connector-curvature="0" />
  <path
     style="fill:#d82a20;fill-opacity:1;stroke:none"
     d="m 112.93292,173.35677 6.34319,17.04847 c 9.24204,-3.10873 18.34461,-6.32261 28.36075,-5.92802 12.41811,1.04699 20.58529,6.24124 19.9478,21.61648 l -0.278,55.45574 20.35356,-0.0641 -0.25711,-65.68245 c 0.36993,-10.26729 -7.8864,-20.02555 -14.12272,-23.52096 -13.03077,-8.76197 -38.66353,-7.8687 -60.34747,1.07487 z"
     id="path2997"
     inkscape:connector-curvature="0"
     sodipodi:nodetypes="ccccccccc" />
  <path
     style="fill:#d82a20;fill-opacity:1;stroke:none"
     d="M 199.9375 132 L 199.9375 221.0625 C 182.506 213.08581 168.61192 203.11604 138.15625 202.375 C 117.20218 203.35509 104.71586 213.8995 104.5625 233.40625 C 104.6003 254.78658 120.29149 261.8998 135.3125 261.84375 C 155.35368 261.70193 159.6415 244.5163 164.59375 235.40625 C 127.22557 270.59753 100.54917 216.75302 142.78125 217.03125 C 169.85633 215.6927 182.78926 227.53808 199.0625 236.28125 L 231.53125 257.25 C 241.86113 261.87983 244.86638 261.76926 255.34375 261.84375 C 281.83011 261.65435 296.42771 236.77319 296.40625 213.875 C 296.6071 188.57401 284.57226 176.09028 273.90625 171.03125 C 254.66414 161.65384 229.84986 168.13471 220.96875 184.875 L 220.625 132.28125 L 199.9375 132 z M 250.15625 182.84375 C 264.19131 182.84375 275.59428 197.14434 275.6875 214.875 L 275.6875 215.09375 C 275.6875 232.90841 264.25749 247.34375 250.15625 247.34375 C 236.05501 247.34375 224.625 232.90841 224.625 215.09375 C 224.625 197.27909 236.05501 182.84375 250.15625 182.84375 z "
     id="path2999" />
  <path
     style="fill:#d82a20;fill-opacity:1;stroke:none"
     d="M 349.40625 165.90625 C 322.22345 165.90625 300.1875 187.33999 300.1875 213.8125 C 300.1875 240.28501 322.22345 261.75 349.40625 261.75 C 376.58905 261.75 398.625 240.28501 398.625 213.8125 L 398.625 213.5 C 398.44531 187.15231 376.46148 165.90625 349.40625 165.90625 z M 348.84375 184.34375 C 364.22895 184.34375 376.74157 197.64801 376.84375 214.125 L 376.84375 214.3125 C 376.84375 230.86755 364.3015 244.28125 348.84375 244.28125 C 333.386 244.28125 320.875 230.86755 320.875 214.3125 C 320.875 197.75745 333.386 184.34375 348.84375 184.34375 z "
     id="path3001" />
  <path
     style="fill:#d82a20;fill-opacity:1;stroke:none"
     d="m 500.07803,167.33137 0.57451,93.07059 20.9696,0 -0.44383,-92.57437 z"
     id="path3773"
     inkscape:connector-curvature="0"
     sodipodi:nodetypes="ccccc" />
  <path
     style="fill:#d82a20;fill-opacity:1;stroke:none"
     d="m 467.18735,167.04411 0.57451,93.07059 20.9696,0 -0.19572,-92.82248 z"
     id="path3773-5"
     inkscape:connector-curvature="0"
     sodipodi:nodetypes="ccccc" />
  <path
     style="fill:#d82a20;fill-opacity:1;stroke:none"
     d="m 519.03685,188.87549 c 5.96491,-9.83833 13.38553,-22.63627 33.03432,-22.69314 l -0.57451,22.40589 c -15.63746,-1.22045 -27.8318,8.11839 -32.74706,27.57647"
     id="path3804"
     inkscape:connector-curvature="0"
     sodipodi:nodetypes="cccc" />
  <path
     style="fill:#d82a20;fill-opacity:1;stroke:none"
     d="m 405.98567,167.04412 21.25687,0.28725 0.28725,58.02549 c 1.80305,22.97999 35.4001,23.71339 40.7902,-1.14902 l 0.28725,22.69314 -0.86176,-0.57451 c -18.01409,25.13266 -62.02372,14.97172 -61.1853,-14.36274 z"
     id="path3806"
     inkscape:connector-curvature="0"
     sodipodi:nodetypes="cccccccc" />
  <path
     style="fill:#d82a20;fill-opacity:1;stroke:none"
     d="m 200.36028,167.33137 0.54387,93.07059 19.85122,0 -1.35967,-93.07059 z"
     id="path3773-5-3"
     inkscape:connector-curvature="0" />
  <g
     id="g4206"
     transform="translate(-614.23454,-19.499509)">
    <path
       sodipodi:nodetypes="cccccccccc"
       inkscape:connector-curvature="0"
       id="path3885"
       d="m 777.02451,152.39412 c -0.0688,-4.17218 -1.39039,-8.76194 2.87255,-11.4902 25.83908,-20.38038 49.70644,-33.41778 73.25,-40.79019 28.69601,-6.741084 61.50984,-12.311759 97.09215,-17.522554 29.14112,-4.857971 54.85939,-11.835579 70.37749,-27.289215 l 0.2872,0.861764 c -8.2884,6.257879 3.9309,3.322625 -25.27841,18.958824 -19.02792,9.608644 -58.07913,15.04577 -94.79412,20.969608 -17.83803,2.724217 -30.51082,6.309303 -43.95,9.766663 -42.10735,14.67013 -54.07127,30.6262 -78.42058,45.96079"
       style="fill:#d82a20;fill-opacity:1;stroke:none" />
    <path
       sodipodi:nodetypes="cccc"
       inkscape:connector-curvature="0"
       id="path3887"
       d="m 825.57059,127.11569 18.09706,-10.05393 c 14.68594,10.62462 33.32008,27.91194 26.42745,34.47059 -4.83449,2.06841 -29.27287,-15.52585 -44.52451,-24.41666 z"
       style="fill:#d82a20;fill-opacity:1;stroke:none" />
    <path
       sodipodi:nodetypes="cccc"
       inkscape:connector-curvature="0"
       id="path3887-4"
       d="m 821.49733,113.75405 18.82468,-8.61489 c 1.52852,-18.815395 -1.04932,-44.219597 -12.09555,-41.717247 -4.53163,2.667397 -4.84855,32.778722 -6.72913,50.332137 z"
       style="fill:#d82a20;fill-opacity:1;stroke:none" />
    <path
       sodipodi:nodetypes="cccc"
       inkscape:connector-curvature="0"
       id="path3887-4-1"
       d="m 850.05161,103.77473 18.82468,-8.614887 c 1.27346,-17.37589 -1.55435,-42.598266 -12.09555,-41.71725 -4.53163,2.6674 -4.84855,32.77872 -6.72913,50.332137 z"
       style="fill:#d82a20;fill-opacity:1;stroke:none" />
    <path
       sodipodi:nodetypes="cccc"
       inkscape:connector-curvature="0"
       id="path3887-4-1-0"
       d="m 877.12177,97.799418 18.43294,-6.401916 c 3.76286,-16.210843 6.03362,-39.522152 -4.52457,-40.138164 -4.86857,1.8934 -9.51915,30.245163 -13.90837,46.54008 z"
       style="fill:#d82a20;fill-opacity:1;stroke:none" />
    <path
       inkscape:transform-center-x="1.7235295"
       sodipodi:nodetypes="cccc"
       inkscape:connector-curvature="0"
       id="path3887-4-1-0-3"
       d="m 906.41739,90.636706 14.98588,-3.242113 c 3.76286,-16.210843 5.74637,-30.61725 -2.80104,-33.531301 -4.86857,1.8934 -7.79562,20.478497 -12.18484,36.773414 z"
       style="fill:#d82a20;fill-opacity:1;stroke:none" />
    <path
       inkscape:transform-center-x="1.3428329"
       sodipodi:nodetypes="cccc"
       inkscape:connector-curvature="0"
       id="path3887-4-1-0-3-9"
       d="m 933.09265,85.753374 11.67576,-2.558319 c 2.93172,-12.791813 4.4771,-24.159764 -2.18234,-26.459213 -3.79318,1.494064 -6.0737,16.159377 -9.49342,29.017532 z"
       style="fill:#d82a20;fill-opacity:1;stroke:none" />
    <path
       inkscape:transform-center-x="1.0165222"
       sodipodi:nodetypes="cccc"
       inkscape:connector-curvature="0"
       id="path3887-4-1-0-3-9-8"
       d="m 954.92403,84.460726 8.83852,-2.229085 c 2.2193,-11.145613 3.38915,-21.050604 -1.65203,-23.054133 -2.87142,1.30179 -4.59777,14.0798 -7.18649,25.283218 z"
       style="fill:#d82a20;fill-opacity:1;stroke:none" />
    <path
       inkscape:transform-center-x="0.79898138"
       sodipodi:nodetypes="cccc"
       inkscape:connector-curvature="0"
       id="path3887-4-1-0-3-9-2"
       d="m 972.73383,81.588178 6.94702,-1.874525 c 1.74436,-9.372783 2.66386,-17.702278 -1.29848,-19.387125 -2.25692,1.094727 -3.61382,11.840257 -5.64854,21.26165 z"
       style="fill:#d82a20;fill-opacity:1;stroke:none" />
    <path
       inkscape:transform-center-x="0.58144078"
       sodipodi:nodetypes="cccc"
       inkscape:connector-curvature="0"
       id="path3887-4-1-0-3-9-2-1"
       d="m 989.10738,76.848472 5.05551,-1.443988 c 1.26945,-7.220061 1.93859,-13.636454 -0.94495,-14.934329 -1.6424,0.843293 -2.62986,9.120811 -4.11056,16.378317 z"
       style="fill:#d82a20;fill-opacity:1;stroke:none" />
    <path
       inkscape:transform-center-x="0.47266529"
       sodipodi:nodetypes="cccc"
       inkscape:connector-curvature="0"
       id="path3887-4-1-0-3-9-2-1-1"
       d="m 1002.0338,70.385237 4.1098,-1.064103 c 1.032,-5.320599 1.5759,-10.048962 -0.7682,-11.005391 -1.3351,0.62144 -2.1379,6.7213 -3.3416,12.069494 z"
       style="fill:#d82a20;fill-opacity:1;stroke:none" />
    <path
       sodipodi:nodetypes="cccc"
       inkscape:connector-curvature="0"
       id="path3887-2"
       d="m 852.23231,112.69646 20.36606,-6.24681 c 14.47965,11.13201 31.67565,28.14401 22.22116,37.32093 -5.04296,1.48969 -28.4782,-20.46306 -42.58722,-31.07412 z"
       style="fill:#d82a20;fill-opacity:1;stroke:none" />
    <path
       sodipodi:nodetypes="cccc"
       inkscape:connector-curvature="0"
       id="path3887-2-1"
       d="m 883.23558,105.27589 17.96359,-3.08963 c 10.35108,10.30262 22.22271,26.75693 12.75544,32.16167 -4.48891,0.37085 -20.59401,-19.20723 -30.71903,-29.07204 z"
       style="fill:#d82a20;fill-opacity:1;stroke:none" />
    <path
       sodipodi:nodetypes="cccc"
       inkscape:connector-curvature="0"
       id="path3887-2-1-0"
       d="m 909.21817,99.589652 16.43914,-1.249217 c 8.4437,10.132605 17.7328,25.919575 8.74737,29.969785 -4.07381,-0.0481 -16.90908,-19.00039 -25.18651,-28.720568 z"
       style="fill:#d82a20;fill-opacity:1;stroke:none" />
    <path
       sodipodi:nodetypes="cccc"
       inkscape:connector-curvature="0"
       id="path3887-2-1-0-1"
       d="m 933.53078,95.887983 14.24079,-1.071413 c 7.31456,8.69045 15.36146,22.23051 7.57762,25.70426 -3.52904,-0.0413 -14.64789,-16.29611 -21.81841,-24.632847 z"
       style="fill:#d82a20;fill-opacity:1;stroke:none" />
    <path
       sodipodi:nodetypes="cccc"
       inkscape:connector-curvature="0"
       id="path3887-2-1-0-1-6"
       d="m 953.64045,92.558824 13.13477,-2.004983 c 7.44348,7.282896 15.9323,18.874819 8.97077,22.568789 -3.27805,0.22086 -14.82248,-13.588574 -22.10554,-20.563806 z"
       style="fill:#d82a20;fill-opacity:1;stroke:none" />
    <path
       sodipodi:nodetypes="cccc"
       inkscape:connector-curvature="0"
       id="path3887-2-1-0-1-6-6"
       d="m 974.5025,88.462671 10.85711,-2.763142 c 6.85516,5.30214 14.94719,14.029701 9.41236,17.640721 -2.73289,0.46157 -13.57459,-9.812649 -20.26947,-14.877579 z"
       style="fill:#d82a20;fill-opacity:1;stroke:none" />
    <path
       sodipodi:nodetypes="cccc"
       inkscape:connector-curvature="0"
       id="path3887-2-1-0-1-6-6-9"
       d="m 991.34315,82.064839 7.62917,-2.599439 c 5.40648,3.472194 11.71668,9.115766 8.35688,12.342267 -1.7244,0.804963 -10.70595,-6.425975 -15.98605,-9.742828 z"
       style="fill:#d82a20;fill-opacity:1;stroke:none" />
    <path
       sodipodi:nodetypes="cccc"
       inkscape:connector-curvature="0"
       id="path3887-2-1-0-1-6-6-9-4"
       d="m 1004.9,76.180055 5.1338,-3.022664 c 3.8927,2.406791 8.4359,6.318698 6.0169,8.555184 -1.2415,0.55797 -7.3491,-3.233405 -11.1507,-5.53252 z"
       style="fill:#d82a20;fill-opacity:1;stroke:none" />
  </g>
</svg>
