<?xml version="1.0" encoding="UTF-8" standalone="no"?>
<!-- Created with Inkscape (http://www.inkscape.org/) -->
<svg
   xmlns:svg="http://www.w3.org/2000/svg"
   xmlns="http://www.w3.org/2000/svg"
   version="1.0"
   width="526"
   height="185"
   id="svg2">
  <defs
     id="defs4" />
  <g
     transform="translate(0,-867.98094)"
     id="layer1">
    <path
       d="M 224.44775,912.29357 C 210.07606,911.9761 196.99458,912.54201 186.39322,922.89718 C 175.79187,933.25228 179.33094,951.34838 193.81831,950.82278 C 208.30568,950.29718 209.92721,939.41408 204.22477,931.39538 C 198.55293,923.41978 201.82675,918.65838 215.27871,918.59788 C 228.72994,918.53738 232.66353,925.56218 232.71091,941.68258 C 203.28817,951.69468 176.58626,970.50978 176.58626,989.56608 C 176.58626,1008.7139 188.40198,1011.4197 201.30173,1012.3172 C 211.95422,1012.3172 227.00995,1003.3297 231.84478,998.21258 C 237.65956,1022.6714 266.54003,1010.2641 272.35482,1000.5131 L 269.64521,996.74578 C 265.35189,1001.1039 260.32786,1000.2188 260.32786,992.97948 L 260.32786,948.77748 C 279.37473,944.63798 299.12215,943.20038 315.46024,947.57748 C 331.76549,951.94578 340.95563,971.76538 326.69975,975.62238 C 331.96801,972.41078 335.22773,964.42178 326.92217,960.41228 C 318.65215,956.41998 308.72797,964.09838 308.72797,974.04488 C 308.72797,984.08298 317.23978,990.65458 328.19937,990.65458 C 339.25057,990.65458 351.22372,980.32638 350.99865,965.16828 C 350.77165,949.88068 335.60511,935.13088 317.38454,932.39268 C 299.18257,929.65738 276.40933,929.97918 259.7167,934.58988 C 256.85343,918.53808 238.81944,912.61105 224.44775,912.29357 z M 231.44019,958.20198 L 231.86377,989.44038 C 223.45564,997.92038 204.66457,1010.9457 197.10314,995.93668 C 189.5785,981.00078 215.88541,965.10068 231.44019,958.20198 z"
       id="path2446"
       style="fill:#d9001d" />
    <path
       d="M 498.2699,867.98094 C 489.31845,867.98094 482.06822,875.13989 482.06824,883.94964 C 482.06824,892.75937 489.31844,899.89717 498.2699,899.89715 C 507.22134,899.89715 514.49273,892.75936 514.49274,883.94964 C 514.49274,875.1399 507.22133,867.98094 498.2699,867.98094 z M 185.77904,887.04172 L 185.77904,899.91833 L 250.83983,899.91833 L 250.83983,887.04172 L 185.77904,887.04172 z M 329.12584,911.44643 C 308.86665,911.44643 302.29144,918.23778 295.90798,922.62188 C 310.5074,923.52188 326.79509,925.60688 337.40516,932.15268 C 347.94879,938.65748 358.05303,951.47618 358.05303,967.72288 C 358.05303,984.24428 342.03774,998.00948 327.92455,998.00948 C 313.72122,998.00948 301.35089,986.96258 301.35089,973.81068 C 301.35089,960.75028 308.77663,957.47618 312.9489,954.30148 C 304.26254,951.72088 291.48325,951.24958 280.83941,952.46608 C 279.98361,957.28998 280.1563,961.25148 280.1563,962.13688 C 280.1563,991.05788 298.36296,1012.6063 326.90669,1012.6063 C 355.32083,1012.6063 373.97012,989.35118 373.97012,960.04628 C 373.97012,930.61178 349.51462,911.44643 329.12584,911.44643 z M 39.392271,928.48828 L 39.392271,914.15038 L 0,914.15038 L 0,919.55938 C 7.555848,919.55938 11.267035,921.37858 11.267035,932.13448 L 11.267035,997.38238 C 11.267035,1001.8563 3.724384,1004.2867 0.08471,1004.2867 L 0.08471,1009.7084 L 50.235736,1009.7084 L 50.235736,1004.2867 C 44.46386,1004.2867 40.747704,1001.2464 40.747704,997.38238 L 40.747704,936.45148 C 53.595098,920.61298 68.942914,924.36578 69.072497,936.91698 L 68.534082,997.38238 C 68.534082,1002.3534 64.62644,1004.2867 59.04605,1004.2867 L 59.04605,1009.7084 L 108.07461,1009.7084 L 108.11696,1004.2867 C 104.15555,1004.2867 98.734825,1001.4677 98.734825,997.38238 L 98.734825,936.45148 C 110.54122,920.71348 127.15656,924.51388 127.15656,936.91698 L 127.15656,997.38238 C 127.15656,1001.0603 122.14811,1004.2867 117.32967,1004.2867 L 117.32967,1009.7084 L 166.46412,1009.7084 L 166.46412,1004.2867 C 160.28858,1004.2867 155.95952,1000.5334 155.95952,997.38238 L 155.95952,938.83828 C 155.95952,907.62285 118.40166,901.89348 97.548821,928.36128 C 88.011575,907.28165 56.704467,904.73236 39.392271,928.48828 z M 450.56053,911.63012 C 438.5336,911.63012 431.58441,921.54198 423.21279,929.06018 L 423.21279,914.15038 L 383.11912,914.15038 L 383.11912,919.55938 C 389.08108,919.55938 394.29124,922.87288 394.29124,927.21338 L 394.29124,995.25608 C 394.29124,1001.066 388.84705,1004.2867 383.31223,1004.2867 L 383.31223,1009.7084 L 438.90617,1009.7084 L 438.90617,1004.2867 C 432.99855,1004.2867 424.8037,1002.6372 424.67412,995.25608 L 424.67412,940.92018 C 427.16546,935.98078 431.14451,930.12658 436.5442,930.12658 C 442.07339,930.12658 444.53509,941.64778 455.54821,941.64778 C 466.56795,941.64778 468.02461,931.61658 468.02461,925.97408 C 468.02461,920.20188 462.71705,911.63012 450.56053,911.63012 z M 475.84172,914.15038 L 475.84172,919.55938 C 481.1453,919.55938 485.81262,923.10988 485.81262,926.62888 L 485.60931,997.59968 C 485.60931,1001.6828 481.13403,1004.2867 475.84172,1004.2867 L 475.84172,1009.7084 L 525.31502,1009.7084 L 525.31502,1004.2867 C 520.12578,1004.2867 516.16585,1000.8972 516.16585,997.59968 L 516.16585,914.15038 L 475.84172,914.15038 z M 451.57099,1027.9855 L 450.42735,1032.2425 L 457.64926,1032.2425 L 453.54061,1052.3622 L 458.75055,1052.3622 L 462.9651,1032.2425 L 469.8058,1032.2425 L 470.5047,1027.9855 L 451.57099,1027.9855 z M 295.78091,1028.0068 L 290.8251,1052.2775 L 295.75973,1052.2775 L 298.00466,1043.1071 L 306.56084,1043.1071 C 313.31208,1043.1071 316.97005,1028.0068 307.28091,1028.0068 L 295.78091,1028.0068 z M 400.10689,1028.0279 L 395.00284,1052.3198 L 400.27632,1052.3198 L 402.24594,1042.3659 L 404.63912,1042.3659 C 406.89351,1042.5555 407.51368,1043.5047 408.23949,1045.0132 L 411.75515,1052.3198 L 417.00745,1052.3198 L 413.15294,1043.8695 C 412.78869,1043.07 412.70574,1042.5529 411.94576,1042.1541 C 422.84184,1038.6739 419.16864,1028.0279 413.25883,1028.0279 L 400.10689,1028.0279 z M 499.71005,1028.0703 L 506.48721,1042.8318 L 504.64467,1052.3622 L 509.55811,1052.3622 L 511.48537,1043.4036 L 522.64651,1028.0703 L 516.65296,1028.0703 L 509.72754,1037.4736 L 504.85646,1028.0703 L 499.71005,1028.0703 z M 353.66213,1028.0915 L 340.08662,1052.2775 L 345.08478,1052.2775 L 348.45219,1046.9828 L 357.77079,1046.9828 L 358.91444,1052.2775 L 363.46785,1052.2775 L 359.7404,1028.0915 L 353.66213,1028.0915 z M 300.16489,1032.0731 L 305.01479,1032.0731 C 310.75859,1032.0731 308.46263,1038.8502 303.40522,1038.8502 L 298.83063,1038.8502 L 300.16489,1032.0731 z M 404.6603,1032.2001 L 409.6161,1032.2001 C 415.54901,1032.2001 413.23532,1038.1725 408.59953,1038.1725 L 403.26251,1038.1725 L 404.6603,1032.2001 z M 355.75882,1033.7885 L 357.28368,1042.8953 L 350.25237,1042.8953 L 355.75882,1033.7885 z"
       id="path2416"
       style="fill:#000000" />
  </g>
</svg>
