<?xml version="1.0" encoding="UTF-8" standalone="no"?>
<!-- Created with Inkscape (http://www.inkscape.org/) -->
<svg
   xmlns:svg="http://www.w3.org/2000/svg"
   xmlns="http://www.w3.org/2000/svg"
   xmlns:xlink="http://www.w3.org/1999/xlink"
   version="1.0"
   width="111"
   height="26"
   id="svg2">
  <defs
     id="defs4" />
  <g
     transform="translate(-131.09375,-982.68815)"
     id="layer1">
    <path
       d="M 163.875,984.8125 C 159.28,986.18253 157.16375,986.345 153.375,985.78125 L 152.5,989.65625 C 153.87,990.05872 155.65,990.05875 157.90625,989.65625 L 154.59375,1003.375 C 152.4975,1004.1 149.4375,1003.7812 149.4375,1003.7812 C 147.74375,1002.6538 145.39875,999.7525 143.625,996.125 L 142.4375,1000.9375 C 143.56625,1003.2737 146.28375,1006.435 148.21875,1007.5625 C 148.29876,1007.5625 151.615,1008.3487 158.0625,1006.6562 L 163.875,984.8125 z M 143.40625,985.03125 C 141.45172,985.08172 139.20438,985.44814 136.625,986.375 L 131.21875,1007.3125 C 135.6525,1006.0225 138.32124,1006.3337 141.0625,1006.6562 L 141.9375,1002.9688 C 140.5675,1002.4863 139.03875,1002.415 136.78125,1002.6562 L 140.25,989.34375 C 141.78125,988.86 143.31999,988.69623 145.09375,988.9375 C 145.73875,991.11375 146.85625,994.73372 149.03125,997.3125 C 149.435,997.71625 150.07875,998.36 150.5625,998.84375 L 151.9375,993.6875 C 149.6,992.155 148.64875,986.83998 148.40625,985.46875 C 147.03625,985.2275 145.36078,984.98078 143.40625,985.03125 z M 239,988.21875 L 234.21875,1006.75 L 237.28125,1006.75 L 242.0625,988.21875 L 239,988.21875 z M 190.9375,988.46875 C 189.97001,988.46874 189.0225,989.4075 188.78125,990.375 C 188.45875,991.4225 188.92125,992.5 189.96875,992.5 C 191.09751,992.50003 192.07,991.4225 192.3125,990.375 C 192.635,989.4075 192.065,988.46875 190.9375,988.46875 z M 183.625,990.375 L 180.46875,991.125 L 179.65625,994.1875 L 178.0625,994.1875 L 177.65625,995.875 L 179.25,995.875 L 177.40625,1002.5625 C 176.43875,1005.9462 177.555,1007.0625 179.8125,1007.0625 C 180.78,1007.0625 182.00125,1006.7651 182.96875,1006.2812 L 182.875,1004.5625 C 182.39125,1004.805 181.98875,1005.0625 181.34375,1005.0625 C 180.69875,1005.0625 179.7425,1004.7351 180.46875,1002.1562 L 182.25,995.875 L 185.21875,995.875 L 185.625,994.1875 L 182.65625,994.1875 L 183.625,990.375 z M 169.65625,993.84375 C 165.7075,993.84375 162.33625,998.37625 162.09375,1002.4062 C 161.9325,1005.065 163.14875,1007.0625 165.40625,1007.0625 C 167.34125,1007.0625 168.86125,1006.015 169.34375,1005.5312 L 170,1004.8125 L 170.0625,1004.9062 L 169.5,1006.75 L 172.5,1006.75 L 175.71875,994.1875 L 172.65625,994.1875 L 172.40625,995 C 171.9225,994.27378 170.705,993.84375 169.65625,993.84375 z M 199.5,993.84375 C 196.35625,993.84375 192.2475,996.35495 191.84375,1001.5938 C 191.6825,1004.4949 193.60125,1007.0625 196.90625,1007.0625 C 201.33875,1007.0625 204.165,1003.1226 204.40625,999.09375 C 204.64875,996.59498 203.44875,993.84375 199.5,993.84375 z M 216.25,993.84375 C 214.55624,993.84375 212.93875,994.49875 210.84375,996.59375 L 210.84375,996.5 L 211.59375,994.1875 L 208.59375,994.1875 L 205.375,1006.75 L 208.34375,1006.75 L 209.40625,1002.5625 C 210.2925,998.93492 212.86125,996.125 214.3125,996.125 C 215.11874,996.12502 215.7725,996.4425 215.53125,997.8125 C 215.53125,998.29627 215.46,998.775 215.21875,999.5 L 213.28125,1006.75 L 216.25,1006.75 L 218.28125,999.5 C 218.52375,998.37251 218.75,997.475 218.75,996.75 C 218.91125,994.655 218.0225,993.84375 216.25,993.84375 z M 227.9375,993.84375 C 223.98625,993.84375 220.68,998.37625 220.4375,1002.4062 C 220.19624,1005.065 221.51125,1007.0625 223.6875,1007.0625 C 225.62125,1007.0625 227.22125,1006.015 227.625,1005.5312 L 228.28125,1004.8125 L 228.34375,1004.9062 L 227.78125,1006.75 L 230.84375,1006.75 L 234,994.1875 L 231,994.1875 L 230.78125,995 C 230.21625,994.27378 228.985,993.84375 227.9375,993.84375 z M 188.0625,994.1875 L 184.8125,1006.75 L 187.8125,1006.75 L 191.03125,994.1875 L 188.0625,994.1875 z M 199.15625,995.625 C 200.76875,995.62498 201.36125,997.22625 201.28125,999 C 200.8775,1004.3988 198.51125,1005.2188 197.625,1005.2188 C 195.69,1005.2187 194.8825,1003.7738 195.125,1001.4375 C 195.20625,999.42252 196.335,995.625 199.15625,995.625 z M 169.65625,995.875 C 170.865,995.87502 171.11375,996.02 172,996.90625 C 170.9525,1003.3538 168.545,1004.9062 167.09375,1004.9062 C 165.96501,1004.9062 165.23125,1003.7538 165.3125,1002.0625 C 165.635,997.71 168.3675,995.875 169.65625,995.875 z M 227.9375,995.875 C 229.14625,995.87502 229.475,996.02 230.28125,996.90625 C 229.2325,1003.3538 226.8875,1004.9062 225.4375,1004.9062 C 224.22749,1004.9062 223.52625,1003.7538 223.6875,1002.0625 C 223.92875,997.71 226.6475,995.875 227.9375,995.875 z"
       id="path2440"
       style="fill:#00529f;fill-rule:evenodd" />
    <use
       transform="translate(-2.015,8.54375)"
       id="use3702"
       xlink:href="#g3696" />
    <use
       transform="translate(1.85375,4.03)"
       id="use3704"
       xlink:href="#g3696" />
    <use
       transform="translate(-3.86875,4.03)"
       id="use3700"
       xlink:href="#g3696" />
    <g
       transform="translate(0.125,0.125)"
       id="g3696">
      <path
         d="M 158.74482,984.46065 L 160.59857,984.46065 L 161.48607,982.68815 L 161.80732,984.46065 L 163.74232,984.46065 L 161.96857,985.5894 L 162.29107,987.44315 L 160.92107,986.31565 L 159.14732,987.44315 L 160.03482,985.5894 L 158.74482,984.46065 z"
         id="path2480"
         style="fill:#ffffff;fill-rule:nonzero" />
      <path
         d="M 159.30857,984.70315 L 160.75982,984.70315 L 161.40482,983.33315 L 161.64607,984.70315 L 163.01607,984.70315 L 161.72607,985.5094 L 161.96857,986.8794 L 160.92107,986.07315 L 159.71232,986.8794 L 160.35732,985.5094 L 159.30857,984.70315 z"
         id="path2488"
         style="fill:#ed1b2d;fill-rule:nonzero" />
    </g>
  </g>
</svg>
